# xmcd
#
# Track frame offsets:
#	150
#	15737
#	30352
#	43316
#	60754
#	74881
#	87385
#	100865
#	117212
#	128652
#	142874
#	161219
#	174157
#	184658
#	198755
#	212764
#	228835
#
# Disc length: 3264 seconds
#
# Revision: 0
# Processed by: cddbd v1.5.2PL0 Copyright (c) Steve Scherf et al.
# Submitted via: EasyCDDAExtractor 16.0.6.1
#
DISCID=de0cbe11
DTITLE=Nicoletta - The Universal Masters Collection
DYEAR=2003
DGENRE=
TTITLE0=La musique
TTITLE1=Il est mort le soleil
TTITLE2=Ma vie c'est un manège
TTITLE3=Mamy Blue
TTITLE4=La solitude ça n'existe pas
TTITLE5=Brève rencontre
TTITLE6=Comme une île au soleil
TTITLE7=Fio maravilla
TTITLE8=Les volets clos
TTITLE9=Le meilleur de l'amour
TTITLE10=Des musiques dorées
TTITLE11=La vallée
TTITLE12=Un vieil air
TTITLE13=Enfants venez chanter l'espoir
TTITLE14=Glory alleluia
TTITLE15=A quoi ça sert de vivre libre
TTITLE16=Broadway
EXTD=
EXTT0=
EXTT1=
EXTT2=
EXTT3=
EXTT4=
EXTT5=
EXTT6=
EXTT7=
EXTT8=
EXTT9=
EXTT10=
EXTT11=
EXTT12=
EXTT13=
EXTT14=
EXTT15=
EXTT16=
PLAYORDER=
